# xmcd
#
# Track frame offsets:
#	150
#	18479
#	37027
#	51577
#	67630
#	84971
#	101986
#	117893
#	136045
#	157327
#	184990
#
# Disc length: 2693 seconds
#
# Revision: 2
# Processed by: cddbd v1.5.2PL0 Copyright (c) Steve Scherf et al.
# Submitted via: audiograbber 1.83.01
#
DISCID=950a830b
DTITLE=Various Artist - ASK-808 Country Volume 4
DYEAR=1900
DGENRE=
TTITLE0=Andy Griggs - She Thinks She Needs Me
TTITLE1=George Strait - Despaperately
TTITLE2=Gretchen Wilson - When It Rains
TTITLE3=Jimmy Buffett with Martina McBride - Trip Around The Sun
TTITLE4=Josh Gracin - I Want To Live
TTITLE5=Rachel Proctor - Me And Emily
TTITLE6=Shania Twain (with Billy Currington) - Party For Two
TTITLE7=Terri Clark - I Think The World Needs A Drink
TTITLE8=Tim McGraw - Drugs Or Jesus
TTITLE9=Toby Keith - Stays In Mexico
TTITLE10=Data Track - Data Track
EXTD=
EXTT0=
EXTT1=
EXTT2=
EXTT3=
EXTT4=
EXTT5=
EXTT6=
EXTT7=
EXTT8=
EXTT9=
EXTT10=
PLAYORDER=
